<?xml version="1.0" encoding="utf-8"?>
<!-- Svg Vector Icons : http://www.onlinewebfonts.com/icon -->
<!DOCTYPE svg PUBLIC "-//W3C//DTD SVG 1.1//EN" "http://www.w3.org/Graphics/SVG/1.1/DTD/svg11.dtd">
<svg version="1.1" xmlns="http://www.w3.org/2000/svg" xmlns:xlink="http://www.w3.org/1999/xlink" x="0px" y="0px" viewBox="0 0 256 256" enable-background="new 0 0 256 256" xml:space="preserve">
<metadata> Svg Vector Icons : http://www.onlinewebfonts.com/icon </metadata>
<g><g><g><path fill="#000000" d="M116.8,10.5c-22.9,2.2-45.9,11.9-63.8,26.9c-22.1,18.5-36.5,43.3-41.6,71.9c-1.5,8.1-1.8,24-0.6,33.1c6.7,53,48.8,95.5,101.5,102.8c8.3,1.1,23.2,1.1,31.3-0.1c59.9-8.3,104.8-61.9,102.3-121.7c-1-21.5-7.5-41.6-19.5-59.8C202.2,27.1,159.6,6.4,116.8,10.5z M135.3,21.2c51,3.7,91.1,40.5,98.6,90.4c4.4,29.2-3.2,59.2-20.6,82c-3.6,4.8-11,12.8-11.8,12.8c-0.2,0-0.7-2.6-1.1-5.8c-1.7-14-6.3-30.8-11.7-41.9c-5.6-11.8-14.6-22.9-23.3-29c-2.2-1.5-4-2.8-4.1-2.9c-0.1-0.1,0.9-1.7,2.1-3.6c9-13.5,10.1-29.2,2.9-42.9C152.6,54,119.7,48.2,98.6,68.1C89.5,76.8,85,87.1,85,99.1c0,9.2,2.7,17.6,7.9,24.8c1.1,1.5,2,2.9,1.9,3c-0.1,0.1-1.9,1.4-3.9,2.8c-17.7,13-30.1,37.7-34.4,68.1c-0.5,3.3-1,7-1.1,8l-0.3,2l-4.6-4.8c-14.8-15.6-24.1-34-28.3-56.1c-1-5.3-1.2-8.7-1.2-18.4c-0.1-12.9,0.4-16.9,3.1-27.6c11-44.3,49.4-76.3,95.7-79.6c3.3-0.3,6.3-0.5,6.8-0.5C127,20.7,131,20.9,135.3,21.2z M136.4,68c8.4,2.2,15.9,7.9,19.7,15.3c6.8,12.9,4.6,28.9-5.2,38.7c-6.3,6.3-13.5,9.2-22.9,9.2c-15.3,0-27.5-9.2-31.3-23.6c-1.2-4.6-1.1-12.6,0.1-17.4c2.8-10.8,11.5-19.5,22.4-22.3C123.4,66.8,132.1,66.8,136.4,68z M107.5,136.7c13.5,7.4,27.9,7.4,40.8-0.1c4.7-2.7,4.6-2.7,12,2.8c10.3,7.8,18.2,19.7,23.4,35.6c3.5,10.8,5.9,23.6,6.6,34.8l0.3,5.8l-4.7,3c-28.7,18.3-66.9,21.7-98.9,8.8c-6.3-2.5-9.5-4.1-16-8l-5.3-3.2l0.3-6.2c0.8-15.9,4.9-32.8,10.8-45.9c4.8-10.4,13.7-21.4,22.1-27c2.2-1.5,4-2.7,4.1-2.7C103.3,134.5,105.3,135.5,107.5,136.7z"/></g></g></g>
</svg>