<?xml version="1.0" encoding="utf-8"?>
<!-- Svg Vector Icons : http://www.onlinewebfonts.com/icon -->
<!DOCTYPE svg PUBLIC "-//W3C//DTD SVG 1.1//EN" "http://www.w3.org/Graphics/SVG/1.1/DTD/svg11.dtd">
<svg version="1.1" xmlns="http://www.w3.org/2000/svg" xmlns:xlink="http://www.w3.org/1999/xlink" x="0px" y="0px" viewBox="0 0 256 256" enable-background="new 0 0 256 256" xml:space="preserve">
<metadata> Svg Vector Icons : http://www.onlinewebfonts.com/icon </metadata>
<g><g><path fill="#000000" d="M128,10C62.8,10,10,62.8,10,128c0,65.2,52.8,118,118,118c65.2,0,118-52.8,118-118C246,62.8,193.2,10,128,10z M128,241.8c-28.2,0-54-10.3-73.9-27.4c1.1-39.9,33.7-71.9,73.9-71.9c-26.1,0-47.3-21.2-47.3-47.3s21.2-47.3,47.3-47.3c26.1,0,47.3,21.2,47.3,47.3s-21.2,47.3-47.3,47.3c40.2,0,72.8,32,73.9,71.9C182,231.5,156.2,241.8,128,241.8z"/></g></g>
</svg>