<?xml version="1.0" encoding="utf-8"?>
<!-- Svg Vector Icons : http://www.onlinewebfonts.com/icon -->
<!DOCTYPE svg PUBLIC "-//W3C//DTD SVG 1.1//EN" "http://www.w3.org/Graphics/SVG/1.1/DTD/svg11.dtd">
<svg version="1.1" xmlns="http://www.w3.org/2000/svg" xmlns:xlink="http://www.w3.org/1999/xlink" x="0px" y="0px" viewBox="0 0 256 256" enable-background="new 0 0 256 256" xml:space="preserve">
<metadata> Svg Vector Icons : http://www.onlinewebfonts.com/icon </metadata>
<g><g><g><path fill="#000000" d="M123.6,10.9c-1.1,0.4-2.7,1.5-3.5,2.3c-3,2.9-3.4,4.2-3.7,13.1l-0.3,8.2l-5.1,1.3c-29,7.4-50.2,31.6-53.4,61.4c-0.3,3.2-0.6,20.7-0.6,43.6c0,36.5-0.1,38.4-1.1,41.7c-2.7,8.7-10.5,15.3-19.5,16.3l-2.7,0.3v5.7v5.8H128h94.2v-5.8v-5.7l-2.7-0.3c-9-1.1-16.8-7.6-19.5-16.3c-1.1-3.4-1.1-5.3-1.1-41.9c0-21.1-0.3-40.6-0.6-43.3c-3.2-29.8-24.6-54.4-53.4-61.5l-5.1-1.3l-0.3-8.3c-0.3-8.9-0.7-10.2-3.7-13.1C132.7,10.1,127.6,9.1,123.6,10.9z M137.1,57.9c15.8,3.3,28.9,14.1,35,29.1c3.2,7.9,3.2,7.2,3.5,54c0.2,23.8,0.6,43.9,0.8,44.7l0.4,1.6H128H79.1l0.4-1.6c0.3-0.8,0.6-20.9,0.8-44.7c0.4-47.5,0.3-46.2,3.9-54.9c6-14.5,19.3-25.3,34.6-28.2c2.4-0.4,4.9-0.9,5.5-1.1C126.2,56.4,132.4,56.9,137.1,57.9z"/><path fill="#000000" d="M104.7,224.6c0,2.8,1.6,7.5,3.4,10.5c9.1,14.2,29.7,14.6,39.3,0.7c1.9-2.8,3.9-8.4,3.9-11.1v-1.9H128h-23.3V224.6z"/></g></g></g>
</svg>