<?xml version="1.0" encoding="utf-8"?>
<!-- Svg Vector Icons : http://www.onlinewebfonts.com/icon -->
<!DOCTYPE svg PUBLIC "-//W3C//DTD SVG 1.1//EN" "http://www.w3.org/Graphics/SVG/1.1/DTD/svg11.dtd">
<svg version="1.1" xmlns="http://www.w3.org/2000/svg" xmlns:xlink="http://www.w3.org/1999/xlink" x="0px" y="0px" viewBox="0 0 256 256" enable-background="new 0 0 256 256" xml:space="preserve">
<metadata> Svg Vector Icons : http://www.onlinewebfonts.com/icon </metadata>
<g><g><path fill="#000000" d="M134.3,21.8C64.9,21.8,10,62.7,10,113.2c0,28.6,17,54.1,45.2,70.9c6.4,3.8,7.1,32.3-28.8,49.5c0,0,51,8.1,83.2-33.1c8,1.2,16.3,3.6,24.7,3.6c69.4,0,111.7-40.4,111.7-90.9C246,62.7,203.7,21.8,134.3,21.8z M72.7,135.3c-12.3,0-22.3-10-22.3-22.3c0-12.3,10-22.2,22.3-22.2s22.2,10,22.2,22.2C95,125.4,85,135.3,72.7,135.3z M128,135.3c-12.3,0-22.2-10-22.2-22.3c0-12.3,10-22.2,22.2-22.2c12.3,0,22.2,10,22.2,22.2C150.2,125.4,140.3,135.3,128,135.3z M183.2,135.3c-12.3,0-22.3-10-22.3-22.3c0-12.3,10-22.2,22.3-22.2c12.3,0,22.2,10,22.2,22.2C205.5,125.4,195.6,135.3,183.2,135.3z"/></g></g>
</svg>