<?xml version="1.0" encoding="utf-8"?>
<!-- Svg Vector Icons : http://www.onlinewebfonts.com/icon -->
<!DOCTYPE svg PUBLIC "-//W3C//DTD SVG 1.1//EN" "http://www.w3.org/Graphics/SVG/1.1/DTD/svg11.dtd">
<svg version="1.1" xmlns="http://www.w3.org/2000/svg" xmlns:xlink="http://www.w3.org/1999/xlink" x="0px" y="0px" viewBox="0 0 256 256" enable-background="new 0 0 256 256" xml:space="preserve">
<metadata> Svg Vector Icons : http://www.onlinewebfonts.com/icon </metadata>
<g><g><path fill="#000000" d="M174.7,127.9c0,3,2.4,5.4,5.4,5.4h60.5c3,0,5.4-2.4,5.4-5.4c0-3-2.4-5.4-5.4-5.4h-60.5C177.2,122.5,174.7,124.9,174.7,127.9L174.7,127.9z"/><path fill="#000000" d="M204.7,98v60.5c0,3,2.4,5.4,5.4,5.4s5.4-2.4,5.4-5.4V98c0-3-2.4-5.4-5.4-5.4S204.7,95.1,204.7,98L204.7,98z"/><path fill="#000000" d="M125.9,235.8H82.9c-40.7,0-72.9,0-72.9-21.1v-4.2c0-39.6,32.7-71.8,72.9-71.8h43c40.2,0,72.9,32.2,72.9,71.8v4.2C198.8,235.8,165,235.8,125.9,235.8L125.9,235.8L125.9,235.8z M82.5,150.5c-33.8,0-61.4,27-61.4,60.2v4.3c0,8.6,35.4,8.6,61.4,8.6h43.7c21.4,0,61.4,0,61.4-8.6v-4.3c0-33.2-27.5-60.2-61.4-60.2H82.5L82.5,150.5L82.5,150.5z M102.3,134.3c-31.9,0-57.9-25.6-57.9-57s26-57,57.9-57s57.9,25.6,57.9,57S134.2,134.3,102.3,134.3L102.3,134.3L102.3,134.3z M56.3,77.1c0,24.9,20.6,45.1,46,45.1c25.3,0,45.9-20.2,45.9-45.1c0-24.9-20.6-45.1-46-45.1C76.9,32,56.3,52.2,56.3,77.1L56.3,77.1L56.3,77.1z"/></g></g>
</svg>